<?xml version="1.0" encoding="utf-8"?>
<!-- Generator: Adobe Illustrator 16.0.2, SVG Export Plug-In . SVG Version: 6.00 Build 0)  -->
<!DOCTYPE svg PUBLIC "-//W3C//DTD SVG 1.1//EN" "http://www.w3.org/Graphics/SVG/1.1/DTD/svg11.dtd">
<svg version="1.1" id="Layer_1" xmlns="http://www.w3.org/2000/svg" xmlns:xlink="http://www.w3.org/1999/xlink" x="0px" y="0px"
	 width="780px" height="1889.622px" viewBox="0 1941.051 780 1889.622" enable-background="new 0 1941.051 780 1889.622"
	 xml:space="preserve">
<g>
	<path fill="#FFFFFF" d="M261.529,2058.895c-4.588-3.365-11.012-5.2-19.271-5.2h-29.67c-2.447,0-3.365,1.224-3.977,3.364
		l-12.847,78.307c0,0.611,0,1.223,0.612,1.835c0.612,1.224,1.224,1.224,1.835,1.224h14.682c2.447,0,3.977-1.224,3.977-3.365
		l3.365-20.8c0-1.224,0.612-1.835,1.835-2.447c0.611-0.611,1.223-1.224,2.447-1.224c1.224-0.611,2.447-0.611,3.365-0.611h3.365
		c1.835,0.611,2.447,0.611,3.059,0.611c11.012,0,19.271-3.364,25.694-9.176c6.423-6.424,9.176-14.683,9.176-25.694
		C269.176,2067.765,266.729,2062.564,261.529,2058.895z M245.93,2082.447c-0.612,4.588-2.447,7.646-4.588,8.87
		c-3.059,1.224-6.424,2.447-11.624,2.447h-6.424l3.365-20.494c0-1.224,1.224-2.447,2.447-2.447h3.365
		c5.2,0,9.176,1.224,11.012,2.447C245.93,2074.8,247.153,2077.553,245.93,2082.447z"/>
	<path fill="#FFFFFF" d="M584.847,2053.694h-14.07c-1.835,0-2.447,0.611-3.059,2.446l-12.235,79.53v0.611
		c0,0.612,0,1.224,0.611,1.835c0.612,0.612,1.224,0.612,1.836,0.612h12.847c2.447,0,3.365-1.224,3.977-3.364l12.235-78.307
		C587.294,2054.918,586.683,2053.694,584.847,2053.694z"/>
	<path fill="#FFFFFF" d="M413.553,2084.588c0-0.611,0-1.223-0.611-1.835c-0.612-0.306-1.224-0.918-1.836-0.918h-14.682
		c-1.836,0-2.447,0.612-3.365,2.447l-20.494,29.671l-8.259-28.447c-0.306-2.753-2.141-3.671-3.67-3.671h-14.988
		c-0.612,0-1.224,0.612-1.836,1.224c-0.306,0.307-0.306,0.918-0.306,1.529c0,0,1.224,3.977,3.365,11.012
		c3.059,7.647,5.199,14.988,8.259,23.247c3.059,8.871,4.588,12.848,4.588,13.459c-10.4,14.683-15.601,22.023-15.601,23.247
		s0.612,2.447,2.447,2.447h14.683c1.835,0,3.059-0.611,3.364-1.835l49.247-70.659v-1.224h-0.306V2084.588z"/>
	<path fill="#FFFFFF" d="M550.895,2081.835h-14.683c-1.835,0-3.059,2.447-3.365,6.424c-3.059-5.2-9.176-7.647-18.047-7.647
		c-8.87,0-16.823,3.365-23.247,10.4c-6.424,6.424-9.176,14.683-9.176,23.859c0,7.646,2.446,13.458,6.423,18.047
		c4.589,4.588,10.4,6.423,17.436,6.423c3.977,0,7.647-0.611,11.623-2.446c3.365-1.224,6.424-3.365,8.871-5.813
		c0,0,0,0.612-0.612,1.836v2.447c0,1.835,0.612,3.059,2.447,3.059h13.459c2.447,0,3.365-1.224,3.977-3.365l7.647-49.858
		c0-1.224,0-1.835-0.612-2.447C552.424,2082.447,551.506,2081.835,550.895,2081.835z M525.812,2119.765
		c-3.059,3.059-7.035,4.588-11.623,4.588c-3.365,0-6.424-1.224-8.871-3.059c-2.446-2.447-3.364-5.2-3.364-8.87
		c0-4.589,1.835-8.871,4.588-11.624c3.059-3.364,7.035-5.2,11.624-5.2c3.364,0,6.423,1.224,8.87,3.365
		c3.059,1.835,3.977,4.588,3.977,8.87C531.012,2112.729,529.177,2116.4,525.812,2119.765z"/>
	<path fill="#FFFFFF" d="M333.412,2081.835h-14.377c-1.835,0-3.059,2.447-3.059,6.424c-3.365-5.2-9.177-7.647-18.047-7.647
		c-9.176,0-16.823,3.365-23.247,10.4c-6.424,6.424-9.789,14.683-9.789,23.859c0,7.646,2.447,13.458,6.424,18.047
		c4.588,4.588,10.4,6.423,18.047,6.423c3.365,0,7.035-0.611,11.012-2.446c3.365-1.224,6.423-3.365,8.871-5.813
		c-0.611,1.836-0.611,3.059-0.611,3.977c0,1.836,0.611,3.059,2.446,3.059h13.459c2.447,0,3.365-1.223,3.977-3.364l7.647-49.858
		c0.611-1.224,0-1.836,0-2.447C335.247,2082.447,334.636,2081.835,333.412,2081.835z M308.941,2119.765
		c-3.365,3.059-7.647,4.588-12.235,4.588c-3.365,0-6.424-1.224-8.871-3.059c-2.447-2.447-3.365-5.2-3.365-8.87
		c0-4.589,1.835-8.871,4.588-11.624c3.365-3.364,7.647-5.2,12.235-5.2c3.365,0,6.424,1.224,8.871,3.365
		c2.446,1.835,3.364,4.588,3.364,8.87C313.835,2112.729,312,2117.012,308.941,2119.765z"/>
	<path fill="#FFFFFF" d="M479.012,2058.895c-4.588-3.365-11.012-5.2-19.271-5.2h-30.282c-2.447,0-3.977,1.224-3.977,3.364
		l-12.235,78.307c-0.611,0.611,0,1.223,0.611,1.835c0.612,1.224,1.224,1.224,1.836,1.224h15.6c1.224,0,2.447-0.612,3.06-2.447
		l3.364-22.023c0-1.224,0.611-1.836,1.224-2.447c0.611-0.611,1.835-1.224,3.059-1.224c1.224-0.611,2.447-0.611,3.365-0.611h3.364
		c1.224,0.611,2.447,0.611,2.447,0.611c11.012,0,19.882-3.364,26.306-9.177c5.812-6.423,9.177-14.682,9.177-25.693
		C486.353,2067.765,483.6,2062.564,479.012,2058.895z M459.741,2090.4c-3.059,1.835-7.035,3.059-12.847,3.059h-6.424l3.364-20.494
		c0-1.836,1.224-2.447,2.447-2.447h3.365c3.059,0,5.199,0.611,7.035,0.611c1.224,0,3.059,1.224,4.588,2.447
		c1.224,1.224,2.447,3.365,2.447,5.813C463.718,2084.588,462.188,2088.259,459.741,2090.4z"/>
</g>
<g>
	<path fill="#FFFFFF" d="M347.482,2410.659l15.294-88.095h23.859l-14.988,88.095H347.482z M458.518,2324.4
		c-4.588-1.836-12.235-3.977-21.412-3.977c-23.247,0-40.07,12.235-40.682,29.059c0,12.541,12.235,19.576,21.105,23.858
		c9.482,4.589,12.541,7.036,12.541,11.318c0,5.812-7.646,8.564-14.376,8.564c-9.788,0-14.683-1.224-22.33-4.895l-3.059-1.224
		l-3.67,19.577c5.812,2.753,16.211,4.588,26.917,4.894c25.082,0,41.601-12.235,41.906-29.977c0-10.399-6.424-18.047-20.188-24.164
		c-8.564-3.977-13.459-6.729-13.459-10.706c0-3.671,3.977-7.647,13.459-7.647c7.953,0,13.459,1.836,18.047,3.671l2.142,0.918
		L458.518,2324.4 M520.611,2322.259h-18.964c-5.506,0-9.788,1.835-12.542,7.647l-35.482,80.446h25.083
		c0,0,3.977-10.705,4.894-12.847h30.895c0.306,3.059,2.753,12.847,2.753,12.847h22.329L520.611,2322.259z M490.635,2379.459
		c2.142-4.895,9.482-24.776,9.482-24.776c0,0.306,2.142-4.895,3.671-8.565l1.224,7.647c0,0,4.588,21.106,5.506,25.694H490.635z
		 M327.294,2322.259l-23.247,60.259l-2.753-12.235c-4.588-13.765-18.047-29.059-33.035-36.706l21.412,77.083h25.083l37.93-88.095
		h-25.389"/>
	<path fill="#FFFFFF" d="M281.718,2322.259h-38.542l-0.306,2.142c29.977,7.035,50.165,24.776,58.423,45.882l-8.564-40.683
		C291.506,2324.4,287.529,2322.564,281.718,2322.259"/>
</g>
<g>
	<path fill="#FFFFFF" d="M419.671,2626.306c0,47.412-38.235,85.647-86.259,85.647c-47.412,0-85.647-38.235-85.647-85.647
		c0-48.023,38.235-86.259,85.647-86.259C380.823,2539.741,419.671,2577.977,419.671,2626.306"/>
	<path fill="#FFFFFF" d="M448.729,2539.741c-22.023,0-42.212,8.564-57.506,22.023c-2.753,2.753-6.118,6.118-8.564,9.177h17.129
		c2.447,2.753,4.895,6.117,6.729,9.176H375.93c-1.836,3.365-3.365,6.118-4.895,9.177h40.377c1.529,3.365,2.753,6.118,3.977,9.177
		h-48.33c-0.917,3.364-1.835,6.117-2.447,9.177h52.612c1.529,6.117,1.835,11.929,1.835,18.353c0,9.482-1.529,19.271-4.282,27.835
		h-48.023c0.918,2.753,2.447,5.813,3.977,9.177h40.376c-1.529,2.753-2.753,5.812-4.894,9.177h-30.589
		c1.836,2.753,4.283,6.117,6.729,9.177h17.13c-2.447,2.752-5.812,6.117-8.564,9.176c15.294,13.459,35.482,22.023,57.506,22.023
		c48.023,0,86.259-38.235,86.259-86.259C534.988,2577.977,496.753,2539.741,448.729,2539.741"/>
	<path fill="#FFFFFF" d="M523.671,2674.329c0-1.835,1.529-2.753,2.753-2.753s2.753,0.918,2.753,2.753
		c0,1.529-1.529,2.447-2.753,2.447S523.671,2675.553,523.671,2674.329z M526.424,2676.165c0.917,0,1.835-0.918,1.835-1.836
		c0-1.529-0.918-2.446-1.835-2.446c-1.529,0-2.447,0.917-2.447,2.446C523.977,2675.247,524.895,2676.165,526.424,2676.165z
		 M525.812,2675.247H525.2v-2.447h1.529c0.611,0.612,0.611,0.612,0.611,0.918c0,0,0,0.611-0.611,0.611l0.611,0.918h-0.611
		l-0.612-0.918h-0.611v0.918H525.812z M525.812,2673.718h0.918c0-0.612,0-0.612-0.612-0.612h-0.611v0.612H525.812z
		 M313.224,2635.482h-2.447c-5.2,0-7.647,1.835-7.647,5.2c0,2.447,0.917,3.977,3.365,3.977
		C310.471,2644.659,312.918,2640.683,313.224,2635.482z M319.953,2651.389h-7.647v-3.977c-2.447,3.364-5.812,4.282-9.482,4.282
		c-5.2,0-8.565-3.977-8.565-9.482c0-8.564,5.812-13.459,16.212-13.459h3.977c0.611-0.918,0.611-1.529,0.611-2.447
		c0-1.835-1.835-2.753-6.117-2.753c-4.283,0-8.259,0.918-9.482,1.529c0-0.611,0.917-8.259,0.917-8.259
		c4.894-0.917,7.647-1.835,11.624-1.835c7.647,0,11.93,3.977,11.93,10.4c0,1.835,0,4.282-0.612,7.035
		C322.094,2637.93,319.953,2648.941,319.953,2651.389z M290.282,2651.389H280.8l5.2-33.647l-11.929,33.647h-6.118l-0.918-33.036
		l-5.2,33.036h-9.177l7.647-43.741h13.459l0.612,24.47l8.565-24.47h14.988L290.282,2651.389 M460.659,2635.482h-2.447
		c-5.2,0-7.647,1.835-7.647,5.2c0,2.447,0.918,3.977,3.365,3.977C457.906,2644.659,460.353,2640.683,460.659,2635.482z
		 M467.389,2651.389h-7.647v-3.977c-2.447,3.364-5.812,4.282-9.482,4.282c-5.2,0-8.564-3.977-8.564-9.482
		c0-8.564,5.812-13.459,16.212-13.459h3.977c0.611-0.918,0.611-1.529,0.611-2.447c0-1.835-1.835-2.753-6.117-2.753
		c-4.283,0-8.26,0.918-9.482,1.529c0-0.611,0.917-8.259,0.917-8.259c4.895-0.917,7.647-1.835,11.624-1.835
		c7.646,0,11.929,3.977,11.929,10.4c0,1.835,0,4.282-0.611,7.035C469.529,2637.93,467.389,2648.941,467.389,2651.389z
		 M361.247,2650.776c-2.447,0.918-4.282,0.918-6.729,0.918c-4.895,0-7.341-2.447-7.341-7.647c0-1.529,0.611-5.812,1.529-9.482
		c0.611-2.753,3.977-23.858,3.977-23.858h9.176l-0.917,5.2h5.812l-1.529,8.564h-5.2c-1.529,6.729-2.753,15.294-2.753,16.212
		c0,1.835,0.918,2.447,3.365,2.447h2.446L361.247,2650.776 M390,2650.165c-3.364,0.917-6.117,1.529-9.482,1.529
		c-10.4,0-15.906-5.2-15.906-15.906c0-11.93,6.729-21.105,16.212-21.105c7.647,0,12.542,5.2,12.542,12.847
		c0,2.753-0.612,5.2-0.918,8.564h-18.659c-0.611,5.2,2.753,7.647,8.259,7.647c3.365,0,6.118-0.918,9.482-2.447L390,2650.165z
		 M384.8,2629.671c0-0.918,0.918-6.729-4.282-6.729c-2.753,0-5.2,2.447-6.117,6.729H384.8z M325.459,2627.224
		c0,4.282,2.447,7.035,7.341,9.482c3.977,1.835,4.282,2.447,4.282,3.977c0,2.447-1.529,3.364-5.199,3.364
		c-2.753,0-5.2-0.611-8.259-1.529c0,0-1.53,7.647-1.53,8.259c2.447,0.612,3.977,0.918,9.482,0.918
		c10.095,0,14.377-3.365,14.377-11.624c0-4.894-1.836-7.646-6.118-10.094c-3.977-1.835-4.282-2.447-4.282-3.977
		c0-1.835,1.529-2.753,4.282-2.753c1.836,0,4.282,0,6.729,0.611l1.529-8.259c-2.446-0.611-6.117-0.917-8.259-0.917
		C329.13,2614.683,325.459,2620.494,325.459,2627.224 M435.883,2615.906c2.446,0,4.894,0.917,8.259,2.446l1.529-9.176
		c-1.529-0.918-6.118-3.977-10.095-3.977c-6.117,0-11.623,2.753-15.294,8.259c-5.2-1.836-7.646,1.835-10.399,5.2l-2.447,0.917
		c0.611-1.529,0.611-2.447,0.611-3.977h-8.564c-1.529,11.012-3.365,22.023-4.895,33.036l-0.611,2.446h9.177
		c1.835-10.094,2.446-16.823,2.753-21.105l3.977-1.835c0.611-1.836,1.835-2.447,5.199-2.447c-0.611,2.447-0.611,4.894-0.611,7.035
		c0,11.623,6.117,18.659,16.212,18.659c2.446,0,4.894,0,8.259-0.918l1.835-10.094c-3.364,1.529-5.812,2.446-8.259,2.446
		c-5.2,0-8.564-4.282-8.564-10.399C423.953,2622.636,428.541,2615.906,435.883,2615.906"/>
	<path fill="#919191" d="M292.729,2648.941h-9.177l5.2-33.647l-11.929,33.647h-6.118l-0.918-33.647l-5.812,33.647h-8.565
		l7.341-43.741h13.459l0.611,26.917L286,2605.2h14.376L292.729,2648.941"/>
	<path fill="#FFFFFF" d="M514.8,2607.341l-2.447,12.542c-2.446-3.365-5.199-5.813-8.564-5.813c-4.894,0-9.177,3.977-11.929,9.177
		c-3.977-0.918-8.26-2.447-8.26-2.447c0.612-2.753,0.612-4.894,0.612-5.2h-8.564c-0.918,11.012-2.753,22.023-4.895,33.036
		l-0.611,2.446h9.481c0.918-8.259,1.836-14.988,2.754-20.188c3.364-2.753,4.894-5.813,8.258-5.2
		c-1.529,3.364-2.446,7.035-2.446,11.623c0,8.565,4.282,14.377,11.012,14.377c3.977,0,6.117-0.918,8.564-3.977l-0.611,3.364h9.176
		l7.342-43.741H514.8z M502.871,2643.13c-2.754,0-4.895-2.447-4.895-7.036c0-6.729,2.753-11.623,7.341-11.623
		c3.365,0,5.2,2.447,5.2,6.729C510.518,2638.235,507.153,2643.13,502.871,2643.13z"/>
	<path fill="#919191" d="M315.671,2633.035c-0.918,0-1.529-0.611-1.836-0.611c-5.199,0-8.258,1.835-8.258,5.812
		c0,1.835,1.529,3.364,3.365,3.364C312.918,2641.6,315.671,2638.235,315.671,2633.035z M322.4,2648.941h-7.647l0.611-3.977
		c-2.446,2.753-5.812,4.282-10.094,4.282c-4.894,0-8.564-3.977-8.564-9.482c0-8.564,6.118-13.765,16.823-13.765
		c0.918,0,2.447,0,3.977,0.611v-2.446c0-2.447-1.529-3.365-5.812-3.365c-4.895,0-8.565,1.529-10.094,1.835
		c0-0.917,1.529-8.259,1.529-8.259c4.894-1.529,7.647-1.835,11.012-1.835c8.259,0,12.541,3.977,12.541,10.4
		c0,1.835-0.612,3.977-0.918,6.729C324.235,2634.871,323.012,2645.883,322.4,2648.941z M448.424,2605.812l-1.529,9.482
		c-3.365-1.835-5.813-2.447-8.565-2.447c-6.729,0-11.929,6.729-11.929,16.212c0,6.729,3.364,10.4,9.176,10.4
		c1.836,0,4.895-0.612,7.647-1.836l-1.529,9.482c-3.365,0.918-5.812,1.53-8.565,1.53c-9.481,0-16.211-7.036-16.211-18.659
		c0-15.906,8.564-26.918,21.105-26.918C442,2603.365,446.895,2605.506,448.424,2605.812 M463.105,2633.035
		c-0.917,0-1.529-0.611-1.835-0.611c-5.2,0-8.259,1.835-8.259,5.812c0,1.835,1.529,3.364,3.365,3.364
		C460.353,2641.6,463.105,2638.235,463.105,2633.035z M469.835,2648.941h-7.646l0.611-3.977c-2.447,2.753-5.812,4.282-10.094,4.282
		c-4.895,0-8.564-3.977-8.564-9.482c0-8.564,6.117-13.765,16.823-13.765c0.918,0,2.447,0,3.977,0.611v-2.446
		c0-2.447-1.529-3.365-5.813-3.365c-4.894,0-8.564,1.529-10.094,1.835c0-0.917,1.529-8.259,1.529-8.259
		c4.895-1.529,7.647-1.835,11.012-1.835c8.259,0,12.541,3.977,12.541,10.4c0,1.835-0.611,3.977-0.917,6.729
		C471.671,2634.871,470.447,2645.883,469.835,2648.941z M364,2648.329c-2.447,0.612-4.895,0.918-6.729,0.918
		c-4.894,0-7.341-2.753-7.341-7.647c-0.612-1.835,0.611-5.812,0.917-9.482c0.612-3.364,4.283-24.47,4.283-24.47h9.176l-0.917,5.812
		h4.894l-1.529,8.259h-4.588c-0.918,7.035-2.447,15.294-2.447,16.212c0,1.835,0.918,2.753,2.753,2.753c1.529,0,1.835,0,2.753-0.612
		L364,2648.329 M392.447,2648.023c-2.753,0.918-6.118,1.529-9.482,1.529c-10.094,0-15.906-5.2-15.906-15.905
		c0.612-11.93,7.342-21.106,16.212-21.106c7.647,0,12.848,4.895,12.848,12.848c0,2.446-0.612,5.199-1.53,8.564h-18.353
		c-0.918,5.2,2.447,7.035,7.647,7.035c3.364,0,6.729-0.611,10.094-1.835L392.447,2648.023z M387.247,2626.918
		c0.611-0.612,1.529-6.118-4.282-6.118c-2.753,0-4.895,2.447-5.812,6.118H387.247z M328.212,2624.471
		c0,4.282,2.447,7.646,7.341,10.094c3.977,1.529,4.282,2.447,4.282,3.977c0,2.447-1.529,3.365-5.199,3.365
		c-2.753,0-5.2-0.612-8.565-1.529c0,0-0.917,7.646-0.917,8.259c1.835,0.611,3.977,0.917,9.482,0.917
		c10.094,0,14.376-3.977,14.376-11.929c0-4.895-1.835-7.647-6.729-9.482c-3.977-1.836-4.282-2.447-4.282-3.977
		c0-1.836,1.529-2.753,4.895-2.753c1.835,0,4.282,0,6.729,0.611l0.918-8.564c-2.447,0-5.812-0.612-8.259-0.612
		C332.188,2612.235,328.212,2617.741,328.212,2624.471 M519.694,2648.941h-9.177l0.611-3.365c-2.446,2.753-5.199,3.977-8.564,3.977
		c-6.729,0-11.623-5.812-11.623-14.988c0-11.623,7.035-21.411,15.294-21.411c3.977,0,6.117,1.529,9.177,4.894l1.835-12.541h9.177
		L519.694,2648.941z M505.93,2640.683c4.282,0,7.341-5.2,7.341-11.93c0-4.895-1.529-7.035-4.894-7.035
		c-4.283,0-7.342,4.894-7.342,11.93C501.035,2638.235,502.564,2640.683,505.93,2640.683z M478.4,2613.153
		c-1.529,11.012-3.365,22.023-4.895,33.035l-0.611,2.447h9.176c3.365-22.024,4.282-26,9.482-25.389
		c0.918-4.895,2.447-8.564,3.365-10.4c-3.977-0.611-5.813,1.53-8.565,5.813c0-1.836,0.612-3.977,0.612-5.2H478.4 M401.012,2613.153
		c-0.918,11.012-2.753,22.023-4.895,33.035l-0.611,2.447h9.482c3.364-22.024,4.282-26,9.482-25.389
		c0.611-4.895,2.447-8.564,3.364-10.4c-3.976-0.611-6.117,1.53-9.176,5.813c0.611-1.836,0.917-3.977,0.611-5.2h-8.259
		 M523.671,2645.883c0-1.53,1.529-2.753,2.753-2.753s2.753,1.529,2.753,2.753c0,1.529-1.529,2.753-2.753,2.753
		S523.671,2647.412,523.671,2645.883z M526.424,2648.023c0.917,0,1.835-0.918,1.835-1.835c0-0.918-0.918-1.836-1.835-1.836
		c-1.529,0-2.447,0.918-2.447,1.836C523.977,2646.8,524.895,2648.023,526.424,2648.023z M525.812,2646.8H525.2v-2.141h0.917
		c0,0,0.612,0,0.612,0.611c0.611,0,0.611,0,0.611,0.612c0,0.611,0,0.611-0.611,0.611l0.611,0.918h-0.611l-0.612-0.918h-0.611v0.306
		H525.812z M525.812,2645.883h0.612v-0.612h0.611c0,0,0-0.611-0.611-0.611h-0.612V2645.883z"/>
</g>
<path fill="#FFFFFF" d="M489.105,2916.588c0,4.895-3.059,7.035-8.564,7.035h-10.706v-4.588h10.706c0.918,0,1.836-0.306,2.142-0.611
	c0.306-0.307,0.611-0.918,0.611-1.529c0-0.612-0.306-1.224-0.611-1.53c-0.306-0.306-0.918-0.611-1.836-0.611
	c-5.199-0.306-11.317,0.306-11.317-7.035c0-3.365,2.142-6.729,7.953-6.729h11.012v4.894H478.4c-0.918,0-1.529,0-2.142,0.307
	c-0.611,0.611-0.918,0.917-0.918,1.835s0.612,1.224,1.224,1.529c0.612,0.306,1.224,0.306,2.142,0.306h3.059
	c3.059,0,5.2,0.612,6.424,1.836C488.494,2912.918,489.105,2914.447,489.105,2916.588z M466.165,2911.389
	c-1.224-1.224-3.365-1.836-6.424-1.836h-3.059c-0.918,0-1.529-0.306-2.142-0.306c-0.611-0.306-1.224-0.918-1.224-1.529
	c0-0.612,0.306-1.224,0.918-1.836c0.611-0.306,1.224-0.306,2.142-0.306h10.094v-4.894h-11.012c-5.812,0-7.953,3.67-7.953,6.729
	c0,7.035,6.424,6.729,11.317,7.035c0.918,0,1.529,0.306,1.836,0.611c0.306,0.306,0.611,0.918,0.611,1.529
	c0,0.612-0.306,1.224-0.611,1.529c-0.612,0.307-1.224,0.612-2.142,0.612h-10.706v4.894h10.706c5.506,0,8.564-2.141,8.564-7.035
	C467.694,2914.447,467.082,2912.918,466.165,2911.389L466.165,2911.389z M445.059,2919.035h-12.847v-4.588h12.541v-4.589h-12.541
	v-4.282h12.847v-4.588h-18.353v22.941h18.353V2919.035L445.059,2919.035z M420.895,2901.906c-1.836-0.918-3.977-1.224-6.729-1.224
	h-12.542v22.941h5.507v-8.259h5.812c1.835,0,3.059,0.306,3.977,0.917c0.917,1.224,0.917,3.059,0.917,4.589v2.752h5.506v-4.282
	c0-2.141-0.306-3.059-0.917-4.282c-0.612-0.611-1.529-1.529-2.753-1.835c1.529-0.612,3.977-2.447,3.977-6.118
	C423.647,2904.353,422.729,2902.823,420.895,2901.906z M390,2900.683h-17.436l-7.035,7.341l-6.729-7.341h-22.329v22.94h21.718
	l7.035-7.341l6.729,7.341h10.706v-7.952h6.729c4.588,0,9.481-1.224,9.481-7.647C399.177,2901.906,394.282,2900.683,390,2900.683
	L390,2900.683z M416.611,2910.165c-0.917,0.306-1.529,0.306-2.753,0.306l-6.729,0.306v-5.2h6.729c0.918,0,1.836,0,2.753,0.612
	c0.612,0.306,1.224,0.917,1.224,1.835C417.529,2908.941,417.224,2909.553,416.611,2910.165z M390,2911.389h-7.035v-5.813H390
	c1.835,0,3.365,0.918,3.365,2.753C393.365,2910.165,392.142,2911.389,390,2911.389z M369.2,2912.306l8.564-8.87v18.353
	L369.2,2912.306z M356.047,2919.035h-13.459v-4.588h11.93v-4.589h-11.93v-4.282h13.765l6.118,6.729L356.047,2919.035
	L356.047,2919.035z M473.812,2884.165h-7.953l-10.399-17.13v17.13h-11.012l-2.142-5.2h-11.317l-2.142,5.2h-6.729
	c-2.752,0-6.117-0.612-7.952-2.753c-1.836-1.836-2.753-4.589-2.753-8.565c0-3.364,0.611-6.423,3.059-8.87
	c1.529-1.835,4.588-2.753,8.259-2.753h5.2v4.895h-5.2c-1.835,0-3.059,0.306-4.282,1.223c-0.918,0.918-1.529,2.753-1.529,5.2
	s0.611,4.282,1.529,5.506c0.918,0.918,2.141,1.224,3.67,1.224h2.447l7.953-18.047h8.259l9.177,21.412v-21.412h8.564L468,2877.13
	v-15.906h5.506L473.812,2884.165L473.812,2884.165L473.812,2884.165z M408.965,2861.529h-5.506v22.941h5.506V2861.529
	L408.965,2861.529z M397.647,2862.447c-1.836-0.918-3.671-0.918-6.424-0.918h-12.541v22.941h5.506v-8.564H390
	c1.835,0,3.365,0.306,3.977,0.917c0.918,1.224,0.918,3.06,0.918,4.282v3.06h5.506v-4.589c0-1.835-0.307-3.059-0.918-3.977
	c-0.611-0.611-1.529-1.529-2.753-1.835c1.529-0.611,3.977-2.447,3.977-6.117C400.4,2865.2,399.482,2863.671,397.647,2862.447
	L397.647,2862.447z M374.706,2879.576h-12.848v-4.588H374.4v-4.588h-12.542v-3.977h12.848v-4.589h-18.354v22.941h18.354V2879.576
	L374.706,2879.576z M352.377,2861.529h-8.871l-6.729,15.601l-7.035-15.601h-8.871v21.412l-9.176-21.412h-8.259l-9.789,22.941h5.812
	l2.141-5.2h11.318l2.141,5.2h11.012v-18.047l7.953,18.047h4.588l7.953-18.047v18.047h5.506v-22.941H352.377L352.377,2861.529z
	 M440.471,2874.377l-3.671-8.871l-3.671,8.871H440.471z M393.365,2870.706c-0.918,0.611-1.53,0.611-2.754,0.611h-6.729v-5.2h6.729
	c0.918,0,2.142,0,2.754,0.307c0.611,0.611,0.917,1.224,0.917,2.141C394.282,2869.482,393.977,2870.4,393.365,2870.706z
	 M303.129,2874.377l3.67-8.871l3.671,8.871H303.129z M487.883,2789.647H293.341v82.282l6.729-15.294h14.071l1.835,3.67v-3.67h16.518
	l3.671,8.259l3.67-8.259h53.224c2.447,0,4.589,0.611,6.118,1.835v-1.835h14.376v1.835c2.447-1.224,5.506-1.835,9.177-1.835h20.8
	l1.835,3.67v-3.67h15.601l2.141,3.67v-3.67H478.4v31.812h-15.295l-3.059-4.895v4.895h-18.965l-2.141-5.2h-4.589l-2.141,5.2h-9.788
	c-3.977,0-6.729-0.918-8.871-1.836v1.836H390v-7.342c0-0.917-0.306-1.223-0.918-1.223h-0.917v8.564h-45.577v-3.977l-1.529,3.977
	h-9.482l-1.529-3.977v3.977h-18.353l-1.836-5.2h-4.588l-2.141,5.2h-9.482v96.353h194.542v-58.424c-2.142,0.918-5.2,1.53-7.953,1.53
	h-14.07v-1.836c-1.53,1.224-4.589,1.836-7.342,1.836h-44.658v-7.342c0-0.917-0.307-0.917-0.918-0.917h-0.611v8.259h-14.988v-8.565
	c-2.447,1.224-5.2,1.224-7.647,1.224h-1.529v7.342h-18.047l-4.282-4.895l-4.589,4.895H332.8v-31.813h29.365l4.282,4.895l4.588-4.895
	h19.576c2.142,0,6.118,0.307,7.647,1.836v-1.836H416c1.835,0,5.2,0.307,7.341,1.836v-1.836h26.612v1.836
	c1.529-1.224,4.282-1.836,6.729-1.836h14.682v1.836c1.53-1.224,3.977-1.836,6.729-1.836h10.095v-106.446H487.883z"/>
<g>
	<path fill="#FFFFFF" d="M403.765,3110.823c20.188,0,36.4,15.906,36.4,36.4v0.611c0,20.188-16.212,36.4-36.4,36.4
		s-36.4-15.906-36.4-36.4v-0.611C367.364,3126.729,383.576,3110.823,403.765,3110.823z"/>
	<path fill="#FFFFFF" d="M346.564,3110.823c5.813,0,11.012,1.529,16.824,4.895v15.294c-5.813-5.506-10.4-7.646-16.824-7.646
		c-12.235,0-22.023,10.399-22.023,23.553c0,14.07,9.177,23.553,22.636,23.553c5.812,0,10.399-2.142,16.212-7.035v15.294
		c-6.424,2.753-11.012,4.282-16.824,4.282c-20.188,0-36.399-15.906-36.399-36.399
		C310.165,3126.118,326.683,3110.823,346.564,3110.823z M283.859,3111.436c7.647,0,14.376,2.753,20.188,7.646l-6.423,9.177
		c-3.977-3.364-7.035-5.506-11.012-5.506c-5.812,0-9.788,3.365-9.788,7.647s1.835,5.506,10.4,9.176
		c14.988,5.506,19.576,10.4,19.576,21.718c0,13.153-9.788,22.33-23.247,22.33c-10.4,0-17.435-4.282-23.858-13.153l8.564-8.259
		c3.365,6.424,8.565,9.788,14.988,9.788c5.812,0,10.4-4.282,10.4-9.788c0-3.364-1.223-5.506-3.977-7.647
		c-1.223-0.611-4.588-2.141-9.788-3.364c-12.235-4.895-16.823-9.788-16.823-19.576
		C262.447,3119.694,272.235,3111.436,283.859,3111.436z M436.188,3112.965h14.376l18.659,45.883l18.047-45.883h14.377l-29.06,70.353
		h-7.035 M241.035,3112.965h12.847v69.129h-12.847 M508.07,3112.965h37.624v11.93h-24.471v15.294h23.247v11.929h-23.247v18.048
		h24.471v11.929H508.07 M582.706,3152.729c10.399-2.142,15.6-9.177,15.6-19.576c0-12.542-8.564-20.188-23.858-20.188h-20.188v69.129
		h13.459v-27.835h1.835l18.047,27.835h16.212L582.706,3152.729z M571.694,3144.776h-3.977v-20.8h3.977
		c8.564,0,12.847,3.365,12.847,9.788C584.541,3140.8,579.953,3144.776,571.694,3144.776z M198.212,3112.965h-19.577v69.129h19.577
		c10.4,0,17.435-2.141,23.859-7.646c7.647-7.035,12.235-16.823,12.235-26.612C234.612,3126.729,219.624,3112.965,198.212,3112.965z
		 M213.812,3164.353c-4.588,4.282-9.788,5.506-18.047,5.506h-3.977v-45.271h3.977c8.565,0,13.459,1.529,18.047,5.506
		c4.588,4.283,7.036,10.4,7.036,16.824C221.153,3153.953,218.4,3160.377,213.812,3164.353z"/>
</g>
<g>
	<path fill="#FFFFFF" d="M534.988,3408.142c0,47.411-38.235,85.646-85.647,85.646c-48.023,0-86.259-38.235-86.259-85.646
		c0-48.024,38.235-86.259,86.259-86.259C496.447,3321.883,534.988,3360.424,534.988,3408.142"/>
	<path fill="#FFFFFF" d="M382.353,3462.282c-2.446-2.753-4.894-5.812-6.729-9.177h30.589c1.835-2.752,3.364-5.812,4.894-9.176
		h-40.376c-1.529-2.753-2.753-5.813-3.977-9.177h48.329c2.753-8.259,4.283-17.741,4.283-26.918c0-6.729-0.612-12.541-1.836-18.658
		h-52.611c0.611-2.753,1.529-5.812,2.447-9.177h47.717c-0.917-2.753-2.446-5.812-3.977-9.177h-40.376
		c1.529-2.753,2.753-5.812,4.895-9.176h30.588c-1.835-2.753-4.282-6.118-6.729-9.177h-17.13c2.447-2.753,5.813-6.117,8.565-9.177
		c-15.295-13.459-35.482-22.023-58.118-22.023c-47.412,0-85.647,38.235-85.647,86.259c0,47.412,38.235,85.647,85.647,85.647
		c22.636,0,42.518-8.565,58.118-22.023c3.364-2.753,6.117-6.118,8.564-9.482h-17.13"/>
	<path fill="#FFFFFF" d="M523.365,3456.165c0-1.836,1.529-2.753,2.752-2.753c1.53,0,2.754,0.917,2.754,2.753
		c0,1.529-1.53,2.446-2.754,2.446C524.895,3458.611,523.365,3457.694,523.365,3456.165z M526.117,3458
		c0.918,0,1.836-0.918,1.836-1.835c0-1.53-0.918-2.447-1.836-2.447c-1.529,0-2.446,0.917-2.446,2.447
		C523.977,3457.082,524.895,3458,526.117,3458z M525.812,3457.082H525.2v-2.446h1.529c0.611,0.611,0.611,0.611,0.611,0.917
		c0,0,0,0.612-0.611,0.612l0.611,0.917h-0.611l-0.612-0.917h-0.611L525.812,3457.082L525.812,3457.082z M525.812,3455.553h0.918
		c0-0.611,0-0.611-0.612-0.611h-0.611L525.812,3455.553L525.812,3455.553z M389.694,3431.082c-3.365,0.918-7.342,1.529-10.4,1.529
		c-11.93,0-18.658-5.199-18.658-15.905c0-12.541,8.259-21.106,19.271-21.106c8.564,0,14.376,4.895,14.376,12.848
		c0,2.447-0.611,4.895-1.529,8.564h-21.105c-0.918,5.2,2.753,7.342,9.176,7.342c3.977,0,7.035-0.612,11.012-1.836L389.694,3431.082z
		 M383.883,3410.282c0-0.917,1.529-6.117-4.895-6.117c-3.365,0-5.812,1.835-6.729,6.117H383.883z M397.341,3407.835
		c0,4.282,2.447,7.647,8.259,10.095c4.283,1.529,4.895,1.835,4.895,3.977c0,2.141-1.835,3.364-6.117,3.364
		c-2.754,0-6.118-0.611-9.482-1.529l-1.53,8.259c2.753,0.611,7.647,0.918,11.624,0.918c11.623,0,16.823-3.977,16.823-11.93
		c0-4.895-2.447-7.647-7.646-10.094c-4.895-1.529-5.2-1.836-5.2-3.977c0-2.142,1.835-2.753,5.2-2.753
		c2.446,0,5.199,0.611,8.259,0.611l1.529-8.259c-2.753-0.611-7.342-0.611-9.482-0.611
		C401.317,3395.906,396.729,3401.105,397.341,3407.835 M355.13,3432.306h-8.565v-3.977c-2.753,2.753-6.117,4.282-11.623,4.282
		c-5.813,0-9.482-3.976-9.482-9.481c0-8.565,6.729-13.765,18.658-13.765c1.53,0,2.753,0,4.895,0.611v-2.447
		c0-2.447-1.529-3.364-6.729-3.364c-4.894,0-8.259,0.917-11.623,1.529l1.529-7.647c5.812-1.529,9.176-1.835,12.847-1.835
		c9.482,0,14.377,3.364,14.377,10.094c0,1.835-0.612,5.812-0.918,7.035C357.883,3415.482,355.436,3428.941,355.13,3432.306z
		 M347.177,3416.4c-0.918-0.612-1.836-0.612-2.447-0.612c-6.118,0-9.177,1.835-9.177,5.812c0,1.836,1.529,3.365,3.977,3.365
		C344.117,3424.965,347.177,3421.6,347.177,3416.4z M439.858,3431.694c-2.753,0.611-5.199,0.917-7.646,0.917
		c-5.2,0-8.564-2.753-8.564-7.646c0-1.529,1.529-7.647,1.529-9.482c0.611-1.836,5.2-27.224,5.2-27.224h10.399l-1.224,7.953h5.2
		l-1.529,9.177h-5.2c0,0-3.364,14.988-3.364,15.905c0,1.836,1.529,2.753,3.976,2.753c0.918,0,1.836,0,2.754-0.611L439.858,3431.694
		 M487.576,3395.906c-7.646,0-13.765,2.753-17.129,8.564l2.753-8.259c-5.812-1.835-9.177,0.917-12.541,5.2l-0.918,0.917v-6.117
		h-10.094c-1.53,11.012-3.977,22.635-5.813,33.646l-0.611,2.447h11.012c0.918-5.812,1.529-10.094,2.447-13.765
		c2.447-10.094,6.117-12.847,11.929-11.623c-1.529,2.753-1.835,6.117-1.835,9.482c0,9.176,4.895,16.211,16.823,16.211
		c11.93,0,20.494-6.117,20.494-21.105C504.094,3402.329,498.588,3395.906,487.576,3395.906z M484.518,3424.047
		c-3.977,0-6.117-3.364-6.117-8.259c0-5.2,3.364-11.93,8.564-11.93c4.282,0,5.812,3.977,5.812,7.036
		C492.776,3419.153,489.718,3424.047,484.518,3424.047z M320.564,3432.306h-11.012l6.118-33.646l-14.377,33.646h-9.482
		l-1.835-33.646l-6.729,33.646h-9.482l8.259-43.741h16.824l1.529,24.471l10.4-24.471h18.354L320.564,3432.306"/>
	<path fill="#919191" d="M505.012,3426.494c0-1.529,1.529-2.447,2.753-2.447c1.529,0,2.753,0.918,2.753,2.447
		c0,1.835-1.529,2.753-2.753,2.753S505.012,3428.329,505.012,3426.494z M508.07,3428.941c0.918,0,1.836-0.918,1.836-2.447
		c0-0.918-0.918-1.835-1.836-1.835c-0.917,0-1.835,0.917-1.835,1.835S507.153,3428.941,508.07,3428.941z M507.459,3428.023h-0.612
		v-2.447h1.53c0.611,0,0.611,0.612,0.611,0.612c0,0.611,0,0.611-0.611,0.917l0.611,0.918h-0.611l-0.612-0.918h-0.611
		L507.459,3428.023L507.459,3428.023z M507.459,3426.494h0.918v-0.611h-0.918V3426.494z M392.447,3428.329
		c-3.977,0.918-7.342,1.529-11.012,1.529c-11.93,0-18.354-5.199-18.354-15.905c0-11.93,8.259-21.106,18.659-21.106
		c9.177,0,14.376,5.2,14.376,12.848c0,2.446,0,5.2-0.917,8.564h-21.718c-0.611,5.2,2.753,7.647,9.482,7.647
		c3.364,0,7.035-0.918,11.012-2.447L392.447,3428.329z M386.941,3407.224c0-0.612,1.529-6.118-4.895-6.118
		c-3.364,0-6.117,2.447-7.341,6.118H386.941z M399.788,3404.776c0,4.895,2.447,7.647,8.259,10.095c4.895,1.835,5.2,2.446,5.2,3.976
		c0,2.447-1.835,3.365-6.118,3.365c-3.364,0-6.117-0.612-9.481-1.529l-1.53,8.259c2.753,0.917,7.036,0.917,11.012,0.917
		c11.624,0,16.824-3.364,16.824-11.623c0-5.2-1.836-8.259-7.647-10.094c-4.282-1.836-4.894-2.447-4.894-3.977
		c0-1.836,1.529-2.753,5.199-2.753c1.836,0,4.895,0,7.647,0.611l1.529-8.259c-2.753-0.611-7.341-0.917-9.482-0.917
		C404.07,3392.848,399.788,3398.047,399.788,3404.776 M357.883,3429.247h-9.177l0.611-3.977c-2.753,3.365-6.729,4.282-11.623,4.282
		c-5.812,0-9.482-3.977-9.482-9.482c0-8.564,6.729-13.765,18.658-13.765c1.53,0,2.753,0.612,4.283,0.612
		c0.611-0.918,0.611-1.529,0.611-2.447c0-2.447-1.835-3.365-6.729-3.365c-5.2,0-8.564,0.918-11.623,1.836l1.529-8.259
		c5.2-1.529,9.176-1.835,12.847-1.835c9.177,0,13.765,3.976,13.765,10.399c0.612,1.835-0.611,5.2-0.611,7.035
		C360.636,3412.424,357.883,3426.494,357.883,3429.247z M349.623,3413.647h-2.446c-5.813,0-9.177,1.529-9.177,5.2
		c0,2.446,1.529,3.976,3.977,3.976c4.895,0,7.646-3.976,8.259-9.176H349.623z M442.918,3428.941c-3.365,0.917-5.2,0.917-7.647,0.917
		c-5.812,0-8.564-2.446-8.564-7.646c0-1.529,0.917-7.647,1.529-9.482c0.611-1.529,4.894-27.224,4.894-27.224h11.013l-1.836,8.564
		h5.812l-1.529,8.564h-5.812c0,0-2.753,14.988-2.753,16.212c0,1.836,0.918,2.447,3.977,2.447h2.753L442.918,3428.941
		 M495.529,3408.753c0,7.647-3.364,12.541-8.564,12.541c-3.977,0-5.812-2.753-5.812-7.646c0-5.813,3.364-11.93,8.564-11.93
		C494,3401.412,495.529,3404.776,495.529,3408.753z M507.153,3408.753c0-8.564-5.813-15.906-16.824-15.906
		c-12.847,0-21.105,8.565-21.105,21.106c0,8.564,4.894,15.905,16.823,15.905C498.588,3429.858,507.153,3423.436,507.153,3408.753z
		 M452.094,3393.765c-0.917,11.012-3.364,22.023-5.199,33.035l-0.612,2.447h10.4c3.977-21.106,5.2-27.224,13.459-25.389
		l3.976-10.094c-5.812-1.835-9.176,0.918-12.541,5.2c0-1.835,0.918-3.977,0.612-5.2H452.094 M323.012,3429.247h-10.4l6.118-33.647
		l-14.376,33.647h-10.094l-2.141-33.035L286,3429.247h-9.482l8.259-43.741H301.6l0.917,27.224l11.624-27.224h17.741
		L323.012,3429.247"/>
</g>
<g>
	<g>
		<path fill="#FFFFFF" d="M521.529,3703.623c-1.224,0.612-2.753,1.53-3.977,2.142c-3.977,1.835-7.953,2.447-11.623,2.447
			c-3.977,0-9.788-0.306-15.906-4.589c-8.564-6.117-12.235-16.211-12.235-25.388c0-18.659,14.988-27.835,27.529-27.835
			c4.282,0,8.871,1.224,12.235,3.364c6.118,3.977,7.647,9.177,8.564,11.93l-28.446,11.317l-9.177,0.612
			c3.059,15.294,13.153,24.164,24.776,24.164c6.118,0,10.706-2.141,14.683-4.282L521.529,3703.623 M510.518,3667.835
			c2.142-0.917,3.671-1.529,3.671-3.364c0-4.895-5.506-10.4-11.93-10.4c-4.895,0-13.765,3.671-13.765,16.824
			c0,2.141,0.306,4.282,0.306,6.423L510.518,3667.835"/>
		<path fill="#FFFFFF" d="M475.341,3706.377h-21.105c2.753-3.671,3.364-3.977,3.364-6.424v-19.576c0-9.482,0-22.636,0.612-35.177
			c0-6.118,0.611-13.765,0.611-19.271h-9.482l9.177-4.282h17.13c-3.671,2.141-4.895,3.059-5.506,7.035
			c-0.918,9.176-1.224,23.858-1.224,40.988v27.835c0,4.588,0.917,5.506,4.894,5.812c2.142,0.306,4.282,0.306,6.118,0.612
			L475.341,3706.377"/>
		<path fill="#FFFFFF" d="M435.883,3656.518c2.752,2.447,8.564,7.035,8.564,16.212c0,8.87-4.895,13.153-10.095,17.129
			c-1.529,1.53-3.364,3.365-3.364,5.813s1.835,3.977,3.059,5.2l4.282,3.364c5.2,4.588,10.095,8.564,10.095,16.823
			c0,11.318-11.012,22.636-31.506,22.636c-17.436,0-26-8.259-26-17.13c0-4.282,2.141-10.399,9.176-14.682
			c7.342-4.589,17.436-5.2,22.941-5.506c-1.835-2.142-3.671-4.283-3.671-8.259c0-2.142,0.612-3.365,1.224-4.895
			c-1.224,0-2.753,0.306-3.67,0.306c-12.848,0-19.883-9.482-19.883-18.965c0-5.506,2.447-11.623,7.647-16.211
			c6.729-5.506,14.988-6.729,21.411-6.729h24.777l-7.647,4.282L435.883,3656.518 M427.317,3709.436c-0.917,0-1.529,0-2.753,0
			s-7.646,0.306-12.541,1.835c-2.753,0.918-10.4,3.671-10.4,12.235s8.26,14.683,21.106,14.683c11.623,0,17.741-5.506,17.741-12.848
			C440.165,3719.224,436.494,3715.858,427.317,3709.436 M430.683,3686.8c2.753-2.753,3.059-6.729,3.059-8.87
			c0-8.565-5.2-22.023-14.988-22.023c-3.059,0-6.424,1.529-8.564,3.976c-2.142,2.447-2.753,5.813-2.753,8.871
			c0,7.953,4.588,21.412,14.988,21.412C425.482,3690.165,428.847,3688.636,430.683,3686.8 M361.247,3707.906
			c-19.271,0-29.364-14.988-29.364-28.447c0-15.6,12.847-29.365,31.199-29.365c17.741,0,28.753,13.766,28.753,28.447
			C391.835,3692.611,381.13,3707.906,361.247,3707.906 M376.235,3698.117c2.753-3.67,3.671-8.564,3.671-13.152
			c0-10.706-4.895-30.895-19.883-30.895c-3.977,0-7.953,1.529-11.012,3.977c-4.588,4.283-5.506,9.482-5.506,14.683
			c0,11.93,5.812,31.506,20.494,31.506C368.895,3704.235,373.788,3701.788,376.235,3698.117 M297.624,3707.906
			c-19.271,0-29.365-14.988-29.365-28.447c0-15.6,12.847-29.365,31.2-29.365c17.741,0,28.753,13.766,28.753,28.447
			C328.212,3692.611,317.506,3707.906,297.624,3707.906 M312.611,3698.117c3.06-3.67,3.671-8.564,3.671-13.152
			c0-10.706-4.894-30.895-19.882-30.895c-3.977,0-7.953,1.529-11.012,3.977c-4.894,4.283-5.506,9.482-5.506,14.683
			c0,11.93,5.812,31.506,20.494,31.506C305.271,3704.235,310.165,3701.788,312.611,3698.117 M260.612,3703.623l-16.212,3.671
			c-6.729,0.918-12.541,1.835-18.659,1.835c-31.2,0-42.824-22.94-42.824-40.682c0-21.718,16.824-42.212,45.577-42.212
			c6.118,0,11.929,0.918,17.129,2.447c8.565,2.446,12.541,5.2,14.988,7.035l-9.482,8.87l-3.977,0.918l2.753-4.588
			c-3.67-3.671-11.012-10.706-24.165-10.706c-17.741,0-31.2,13.459-31.2,33.341c0,21.106,15.294,40.988,39.765,40.988
			c7.341,0,11.012-1.529,14.376-2.753v-18.047l-16.823,0.918l9.176-4.895h23.859l-3.059,2.753c-0.612,0.612-0.918,0.918-1.224,1.836
			c0,0.917-0.306,4.282-0.306,5.505L260.612,3703.623 M573.224,3706.377h-8.564l-12.542-54.447h6.729l10.4,48.941l10.706-48.941
			h8.564l10.706,48.941l10.094-48.941h6.729l-12.235,54.447h-8.564l-10.706-48.636L573.224,3706.377 M655.812,3668.447
			c0-8.871-3.977-12.235-12.847-12.235c-7.035,0-11.012,3.671-11.93,10.094l-6.117-0.917c1.224-8.871,8.259-14.988,18.353-14.988
			c11.93,0,18.659,5.199,18.659,17.129v27.835c0,4.895,0.306,7.953,0.917,10.706h-6.423c-0.612-1.529-0.612-4.282-0.612-5.812
			c-2.446,3.671-8.564,7.035-14.376,7.035c-10.095,0-18.047-6.118-18.047-18.048c0-11.011,7.952-17.435,19.271-17.435
			c5.506,0,10.094,0.917,12.847,2.446L655.812,3668.447 M655.812,3680.07c-3.059-1.529-7.341-2.753-13.152-2.753
			c-7.647,0-13.153,3.671-13.153,11.93c0,8.564,4.895,12.541,11.93,12.541c6.117,0,11.929-4.588,14.07-9.177L655.812,3680.07
			 M674.165,3628.988h6.117v77.694h-6.117V3628.988z M693.13,3628.988h6.117v77.694h-6.117V3628.988z M730.142,3701.788
			c6.729,0,11.623-3.977,12.541-14.07l6.423,0.918c-1.529,13.152-9.176,19.271-18.964,19.271c-12.848,0-20.494-9.482-20.494-29.059
			c0-17.436,6.423-27.836,19.882-27.836c14.07,0,19.576,11.624,19.576,27.529v2.142h-33.341
			C716.07,3695.059,721.576,3701.788,730.142,3701.788 M742.683,3674.564L742.683,3674.564
			c-0.306-10.399-4.282-18.353-13.153-18.353c-8.564,0-13.152,7.035-13.459,18.047L742.683,3674.564 M777.858,3706.07
			c-1.223,0.612-3.67,0.918-6.423,0.918c-7.953,0-10.706-3.977-10.706-11.93v-37.623h-7.035v-5.2h7.035V3634.8l6.424-2.446v19.882
			h11.012v5.506h-11.012v36.706c0,5.2,0.917,6.729,5.506,6.729c2.141,0,3.977-0.612,5.506-1.224L777.858,3706.07"/>
	</g>
	<path fill="#FFFFFF" d="M59.953,3657.436c-8.565-11.93-20.8-22.33-34.565-29.671c-7.035-3.671-15.6-1.224-19.577,5.812l0,0
		c-3.67,7.035-1.223,15.601,5.812,19.577c21.106,11.317,34.871,33.035,36.4,57.812l0,0c-0.306-2.753,0.306-5.506,1.529-7.953
		c0.306-0.306,0.306-0.611,0.612-1.224c6.729-11.011,10.094-23.553,10.094-36.094C60.259,3662.636,60.259,3659.883,59.953,3657.436"
		/>
	<path fill="#FFFFFF" d="M143.459,3630.212c-2.447-11.317-6.424-22.023-11.318-32.424c-2.753-5.506-8.259-9.177-14.376-9.177
		c-2.447,0-4.588,0.612-6.729,1.53c-7.953,3.67-11.317,13.458-7.647,21.105c7.953,17.13,12.235,35.177,12.235,53.835
		c0,18.659-3.977,36.706-11.929,53.529c0,0.307-1.53,3.365-1.53,6.73c0,1.223,0,2.446,0.306,3.67
		c0.917,4.895,4.282,8.871,8.871,10.706c2.141,0.918,4.282,1.529,6.729,1.529c5.812,0,11.317-3.059,14.07-8.259
		c3.059-5.812,6.423-13.765,9.177-23.858c0.917-3.06,1.529-5.813,2.447-8.871c2.753-11.623,3.977-23.247,3.977-35.177
		C147.436,3653.459,146.212,3641.835,143.459,3630.212"/>
	<path fill="#FFFFFF" d="M76.165,3613.694c-0.306-0.612-0.612-0.918-0.917-1.224c-2.753-3.671-7.341-5.812-11.929-5.812
		c-2.447,0-3.671,0.306-5.506,0.917c-1.835,0.612-3.67,1.836-5.506,3.365c-1.529,1.529-2.753,3.364-3.364,5.506
		c-1.53,3.977-1.224,8.87,1.223,12.847c5.2,8.564,8.259,18.047,9.482,28.142c0.306,2.753,0.612,5.199,0.612,7.952
		c0,12.848-3.365,25.389-10.094,36.095c-1.835,2.753-2.447,6.117-2.141,9.176c0.612,4.895,3.059,9.177,7.341,11.624
		c1.224,0.611,2.141,1.224,3.365,1.529c6.729,2.142,13.765-0.612,17.435-6.729c9.482-15.6,14.376-33.647,14.376-52
		C90.541,3647.035,85.647,3629.294,76.165,3613.694"/>
	<path fill="#FFFFFF" d="M103.694,3718.611c7.953-16.823,11.929-34.87,11.929-53.529c0-6.423-0.612-11.012-0.917-14.07
		c-10.4-16.518-25.694-31.506-43.436-42.518c0,0,0.306,0.306,0.612,0.306c1.224,0.918,2.141,1.835,3.365,3.365
		c0.306,0.306,0.612,0.917,0.917,1.224c9.482,15.6,14.376,33.646,14.376,51.693c0,2.142,0,4.283-0.306,6.424
		c7.647,14.377,11.624,30.588,11.624,48.023c0,1.529,0,3.671,0,5.2c0-1.835,0.612-3.671,1.224-5.506
		C103.388,3718.918,103.388,3718.918,103.694,3718.611"/>
</g>
</svg>
